# xmcd CD database file
#
# Track frame offsets:
#	150
#	19610
#	43542
#
# Disc length: 868 seconds
#
# Revision: 0
# Processed by: cddbd v1.5.1PL0 Copyright (c) Steve Scherf et al.
# Submitted via: CDex 1.51
#
DISCID=18036203
DTITLE=真行寺恵里 - 絶体絶命
DYEAR=1999
DGENRE=Rock
TTITLE0=絶体絶命
TTITLE1=CAN'T BE AN ANGEL
TTITLE2=君のその手を放さずに
EXTD=YEAR: 1999
EXTT0=
EXTT1=
EXTT2=
PLAYORDER=
